# xmcd
# 
# Track frame offsets:
#     150
#     16825
#     33293
#     53753
#     71507
#     89497
#     103060
#     121223
#     136435
#     154912
#     169699
#     185524
#     206961
#     225393
#     245468
#     262974
#     297823
#     359175
# 
# Disc length: 4795
# 
# Revision: 2
# Processed by: cddbd v1.5.2PL0 Copyright (c) Steve Scherf et al.
# Submitted via: BonkEnc v1.0.5
# 
DISCID=0612b912
DTITLE=Whiteberry - KISEKI～the best of Whiteberry～
DYEAR=2004
DGENRE=Pop
TTITLE0=夏祭り
TTITLE1=信じる力
TTITLE2=かくれんぼ
TTITLE3=生まれ変わってもアタシでいたい
TTITLE4=がんばれ！女の子
TTITLE5=中国四千年の恋
TTITLE6=自転車泥棒
TTITLE7=10 years after
TTITLE8=Whiteberryの小さな大冒険
TTITLE9=願い星
TTITLE10=ときめきラブコール
TTITLE11=YUKI
TTITLE12=通学路
TTITLE13=一番星
TTITLE14=桜並木道
TTITLE15=Rainy days and Wednesday
TTITLE16=17
TTITLE17=18
EXTD=YEAR: 2004
EXTT0=
EXTT1=
EXTT2=
EXTT3=
EXTT4=
EXTT5=
EXTT6=
EXTT7=
EXTT8=
EXTT9=
EXTT10=
EXTT11=
EXTT12=
EXTT13=
EXTT14=
EXTT15=
EXTT16=
EXTT17=
PLAYORDER=
